<svg width="76" height="37" viewBox="0 0 76 37" fill="none" xmlns="http://www.w3.org/2000/svg">
<path d="M39.1717 1.0164C37.1801 1.0164 35.0511 0.845335 34.5017 0.674274C33.815 0.43479 35.0511 0.332153 38.6223 0.332153C41.438 0.332153 45.6273 0.571638 47.8936 0.879547C50.1599 1.15324 53.8684 1.83749 56.1347 2.38488C58.4011 2.93227 62.3843 4.33497 64.994 5.53239C68.4278 7.10615 70.282 8.30357 71.9989 10.0826C73.6472 11.7248 74.4713 13.1959 74.746 14.7012C75.0207 15.9671 74.8833 17.7461 74.4026 18.8067C73.9219 19.833 72.205 22.0568 70.6254 23.7674C68.9772 25.478 66.1615 27.736 64.4446 28.8308C62.7277 29.8914 59.3625 31.4994 57.0275 32.3547C54.6239 33.2442 50.984 34.339 48.9237 34.8179C46.2454 35.4338 43.567 35.7075 39.6524 35.8443C36.4933 35.9127 32.3728 35.8101 30.0378 35.5706C27.7715 35.3311 23.4449 34.51 20.4231 33.7574C16.6459 32.7994 13.5555 31.6704 10.3964 30.1309C7.58065 28.694 5.1083 27.0518 3.6661 25.6491C1.9492 23.8701 1.39979 22.8437 1.12508 20.5173C0.850377 18.8409 1.05641 16.7197 1.46846 15.5565C1.88052 14.4275 3.11669 12.5801 4.21551 11.4511C5.24566 10.3221 7.51197 8.54306 9.22888 7.51669C10.8771 6.49033 14.2422 4.84815 16.7146 3.856C19.1183 2.89806 22.4834 1.76906 24.2003 1.39273C25.9172 1.0164 27.9775 0.674274 28.8703 0.674274C29.6944 0.674274 30.3812 0.845335 30.3812 1.0164C30.3812 1.18746 29.9691 1.35852 29.557 1.35852C29.0763 1.35852 26.6726 1.97433 24.2003 2.76121C21.7279 3.54809 17.47 5.36133 14.6543 6.79824C11.2892 8.54306 8.88549 10.1852 7.30594 11.7932C5.93242 13.1959 4.62757 15.2486 4.14684 16.754C3.59743 18.6014 3.52875 20.0041 4.07816 21.7147C4.42154 23.0148 5.58904 24.9991 6.5505 26.0596C7.718 27.2913 10.053 28.865 12.6627 30.1993C15.0664 31.3625 18.3628 32.731 20.0797 33.2442C21.7966 33.7232 25.0244 34.4074 27.2907 34.7153C30.1064 35.1259 32.9908 35.2627 36.562 35.1943C40.8886 35.0574 42.6742 34.8179 47.6876 33.5863C52.0828 32.5599 54.9672 31.5678 58.0577 30.0283C60.4613 28.8308 63.5518 27.0176 64.9253 25.9912C66.2988 24.9649 68.4278 22.8095 69.5953 21.2015C71.5182 18.5672 71.7242 18.0198 71.4495 15.2144C71.1748 12.6827 70.7628 11.759 69.1832 10.0826C67.947 8.85096 65.4747 7.20878 63.0024 5.97715C60.4613 4.74551 57.0275 3.47967 54.4178 2.86385C51.9455 2.24803 48.3056 1.598 46.314 1.39273C44.3911 1.18746 41.0946 1.0164 39.1717 1.0164Z" fill="#E8BA00" stroke="#E8BA00" stroke-width="0.564015"/>
</svg>
