<svg width="201" height="10" viewBox="0 0 201 10" fill="none" xmlns="http://www.w3.org/2000/svg">
<path d="M1.88064 2.20099C2.39536 2.12451 15.6797 1.78838 31.5388 1.52041C47.3977 1.17734 82.8239 0.781602 110.321 0.632487C137.818 0.483371 169.435 0.548442 180.661 0.818592C191.784 1.16411 200.848 1.59027 200.746 1.89091C200.541 2.11675 155.64 2.61308 100.852 2.91076C45.9612 3.13362 1.16237 3.17913 1.16156 2.87876C1.16055 2.5033 1.46869 2.2021 1.88064 2.20099Z" fill="#E8BA00"/>
<path d="M1.48608 8.66004C1.69084 8.20893 14.0479 7.72511 34.2324 7.44549C52.0482 7.17225 80.6776 6.8699 97.9791 6.82332C115.28 6.70165 145.353 6.84598 164.818 7.01885C186.96 7.25962 200.453 7.67385 200.66 8.12385C200.867 8.64894 167.192 8.96488 101.075 9.14287C34.9583 9.32086 1.28152 9.18624 1.48608 8.66004Z" fill="#E8BA00"/>
<path d="M1.88064 2.20099C2.39536 2.12451 15.6797 1.78838 31.5388 1.52041C47.3977 1.17734 82.8239 0.781602 110.321 0.632487C137.818 0.483371 169.435 0.548442 180.661 0.818592C191.784 1.16411 200.848 1.59027 200.746 1.89091C200.541 2.11675 155.64 2.61308 100.852 2.91076C45.9612 3.13362 1.16237 3.17913 1.16156 2.87876C1.16055 2.5033 1.46869 2.2021 1.88064 2.20099Z" stroke="#E8BA00" stroke-width="0.427178"/>
<path d="M1.48608 8.66004C1.69084 8.20893 14.0479 7.72511 34.2324 7.44549C52.0482 7.17225 80.6776 6.8699 97.9791 6.82332C115.28 6.70165 145.353 6.84598 164.818 7.01885C186.96 7.25962 200.453 7.67385 200.66 8.12385C200.867 8.64894 167.192 8.96488 101.075 9.14287C34.9583 9.32086 1.28152 9.18624 1.48608 8.66004Z" stroke="#E8BA00" stroke-width="0.427178"/>
<path d="M41.834 1.19273C39.5687 1.34901 36.0672 1.35844 34.1101 1.21352C32.153 1.0686 34.0063 0.913429 38.2287 0.902062C42.4511 0.890696 44.0993 1.03644 41.834 1.19273Z" fill="#E8BA00"/>
<path d="M197.857 0.772707C196.415 0.926773 193.635 0.934258 191.678 0.789342C189.721 0.644425 190.853 0.49119 194.252 0.482041C197.65 0.472892 199.298 0.618641 197.857 0.772707Z" fill="#E8BA00"/>
<path d="M62.952 3.38866C60.9957 3.54411 57.2883 3.55409 54.7132 3.41084C52.1382 3.26759 53.7855 3.11297 58.3169 3.10077C62.8483 3.08857 64.9084 3.23321 62.952 3.38866Z" fill="#E8BA00"/>
<path d="M179.84 3.07399C177.575 3.23028 174.074 3.2397 172.117 3.09479C170.159 2.94987 172.013 2.79469 176.235 2.78333C180.458 2.77196 182.106 2.91771 179.84 3.07399Z" fill="#E8BA00"/>
<path d="M10.4315 4.28098C8.47522 4.43643 5.48864 4.44447 3.73749 4.299C1.98633 4.15353 3.63369 3.99891 7.34116 3.98893C11.0486 3.97895 12.3879 4.12553 10.4315 4.28098Z" fill="#E8BA00"/>
<path d="M37.7307 7.2112C35.4655 7.36748 31.964 7.37691 30.0068 7.23199C28.0497 7.08708 29.903 6.9319 34.1254 6.92053C38.3478 6.90917 39.996 7.05492 37.7307 7.2112Z" fill="#E8BA00"/>
<path d="M173.156 6.84663C171.2 7.00208 167.493 7.01206 164.918 6.86881C162.343 6.72555 163.99 6.57093 168.521 6.55873C173.053 6.54654 175.113 6.69117 173.156 6.84663Z" fill="#E8BA00"/>
<path d="M72.7518 9.36971C68.2209 9.53209 60.394 9.55316 55.2443 9.41684C50.0948 9.35561 53.8019 9.19544 63.4825 9.16938C73.0602 9.1436 77.283 9.28242 72.7518 9.36971Z" fill="#E8BA00"/>
<path d="M147.931 9.16732C143.4 9.3297 135.779 9.35022 130.939 9.21306C126.098 9.151 129.805 8.99084 139.177 8.96561C148.548 8.94038 152.462 9.08003 147.931 9.16732Z" fill="#E8BA00"/>
<path d="M41.834 1.19273C39.5687 1.34901 36.0672 1.35844 34.1101 1.21352C32.153 1.0686 34.0063 0.913429 38.2287 0.902062C42.4511 0.890696 44.0993 1.03644 41.834 1.19273Z" stroke="#E8BA00" stroke-width="0.427178"/>
<path d="M197.857 0.772707C196.415 0.926773 193.635 0.934258 191.678 0.789342C189.721 0.644425 190.853 0.49119 194.252 0.482041C197.65 0.472892 199.298 0.618641 197.857 0.772707Z" stroke="#E8BA00" stroke-width="0.427178"/>
<path d="M62.952 3.38866C60.9957 3.54411 57.2883 3.55409 54.7132 3.41084C52.1382 3.26759 53.7855 3.11297 58.3169 3.10077C62.8483 3.08857 64.9084 3.23321 62.952 3.38866Z" stroke="#E8BA00" stroke-width="0.427178"/>
<path d="M179.84 3.07399C177.575 3.23028 174.074 3.2397 172.117 3.09479C170.159 2.94987 172.013 2.79469 176.235 2.78333C180.458 2.77196 182.106 2.91771 179.84 3.07399Z" stroke="#E8BA00" stroke-width="0.427178"/>
<path d="M10.4315 4.28098C8.47522 4.43643 5.48864 4.44447 3.73749 4.299C1.98633 4.15353 3.63369 3.99891 7.34116 3.98893C11.0486 3.97895 12.3879 4.12553 10.4315 4.28098Z" stroke="#E8BA00" stroke-width="0.427178"/>
<path d="M37.7307 7.2112C35.4655 7.36748 31.964 7.37691 30.0068 7.23199C28.0497 7.08708 29.903 6.9319 34.1254 6.92053C38.3478 6.90917 39.996 7.05492 37.7307 7.2112Z" stroke="#E8BA00" stroke-width="0.427178"/>
<path d="M173.156 6.84663C171.2 7.00208 167.493 7.01206 164.918 6.86881C162.343 6.72555 163.99 6.57093 168.521 6.55873C173.053 6.54654 175.113 6.69117 173.156 6.84663Z" stroke="#E8BA00" stroke-width="0.427178"/>
<path d="M72.7518 9.36971C68.2209 9.53209 60.394 9.55316 55.2443 9.41684C50.0948 9.35561 53.8019 9.19544 63.4825 9.16938C73.0602 9.1436 77.283 9.28242 72.7518 9.36971Z" stroke="#E8BA00" stroke-width="0.427178"/>
<path d="M147.931 9.16732C143.4 9.3297 135.779 9.35022 130.939 9.21306C126.098 9.151 129.805 8.99084 139.177 8.96561C148.548 8.94038 152.462 9.08003 147.931 9.16732Z" stroke="#E8BA00" stroke-width="0.427178"/>
<path d="M56.2557 1.15343C53.9904 1.30972 50.4889 1.31914 48.5318 1.17423C46.5747 1.02931 48.428 0.874134 52.6504 0.862767C56.8728 0.851401 58.521 0.997149 56.2557 1.15343Z" fill="#E8BA00"/>
<path d="M184.987 0.806881C182.722 0.963165 179.221 0.972591 177.263 0.827674C175.306 0.682757 177.16 0.527582 181.382 0.516215C185.604 0.504848 187.253 0.650597 184.987 0.806881Z" fill="#E8BA00"/>
<path d="M8.16354 2.03383C7.23708 2.18651 5.38334 2.1915 4.04413 2.04492C2.70492 1.89834 3.5284 1.74593 5.79407 1.73984C8.05955 1.65864 9.08981 1.80606 8.16354 2.03383Z" fill="#E8BA00"/>
<path d="M47.508 3.42977C45.5517 3.58522 41.8442 3.5952 39.2692 3.45195C36.6941 3.30869 38.3415 3.15407 42.8728 3.14187C47.4042 3.12968 49.4643 3.27431 47.508 3.42977Z" fill="#E8BA00"/>
<path d="M194.262 3.0347C191.997 3.19098 188.495 3.20041 186.538 3.05549C184.581 2.91057 186.434 2.7554 190.657 2.74403C194.879 2.73267 196.527 2.87841 194.262 3.0347Z" fill="#E8BA00"/>
<path d="M59.8763 7.15111C56.1693 7.31128 50.4021 7.3268 47.0032 7.18577C43.6042 7.04473 46.5906 6.9616 53.6966 6.94247C60.8026 6.92334 63.5834 6.99095 59.8763 7.15111Z" fill="#E8BA00"/>
<path d="M155.653 6.89328C152.564 7.05178 147.002 7.06675 143.294 6.92655C139.587 6.78634 142.161 6.70432 148.958 6.68602C155.755 6.66772 158.742 6.73478 155.653 6.89328Z" fill="#E8BA00"/>
<path d="M42.8898 9.44963C40.6245 9.60591 37.123 9.61533 35.1659 9.47042C33.2088 9.3255 35.0621 9.17033 39.2845 9.15896C43.5069 9.14759 45.1551 9.29334 42.8898 9.44963Z" fill="#E8BA00"/>
<path d="M168.017 9.11278C166.061 9.26823 162.353 9.27821 159.778 9.13496C157.203 8.9917 158.851 8.83708 163.382 8.82488C167.913 8.81268 169.973 8.95732 168.017 9.11278Z" fill="#E8BA00"/>
<path d="M56.2557 1.15343C53.9904 1.30972 50.4889 1.31914 48.5318 1.17423C46.5747 1.02931 48.428 0.874134 52.6504 0.862767C56.8728 0.851401 58.521 0.997149 56.2557 1.15343Z" stroke="#E8BA00" stroke-width="0.427178"/>
<path d="M184.987 0.806881C182.722 0.963165 179.221 0.972591 177.263 0.827674C175.306 0.682757 177.16 0.527582 181.382 0.516215C185.604 0.504848 187.253 0.650597 184.987 0.806881Z" stroke="#E8BA00" stroke-width="0.427178"/>
<path d="M8.16354 2.03383C7.23708 2.18651 5.38334 2.1915 4.04413 2.04492C2.70492 1.89834 3.5284 1.74593 5.79407 1.73984C8.05955 1.65864 9.08981 1.80606 8.16354 2.03383Z" stroke="#E8BA00" stroke-width="0.427178"/>
<path d="M47.508 3.42977C45.5517 3.58522 41.8442 3.5952 39.2692 3.45195C36.6941 3.30869 38.3415 3.15407 42.8728 3.14187C47.4042 3.12968 49.4643 3.27431 47.508 3.42977Z" stroke="#E8BA00" stroke-width="0.427178"/>
<path d="M194.262 3.0347C191.997 3.19098 188.495 3.20041 186.538 3.05549C184.581 2.91057 186.434 2.7554 190.657 2.74403C194.879 2.73267 196.527 2.87841 194.262 3.0347Z" stroke="#E8BA00" stroke-width="0.427178"/>
<path d="M59.8763 7.15111C56.1693 7.31128 50.4021 7.3268 47.0032 7.18577C43.6042 7.04473 46.5906 6.9616 53.6966 6.94247C60.8026 6.92334 63.5834 6.99095 59.8763 7.15111Z" stroke="#E8BA00" stroke-width="0.427178"/>
<path d="M155.653 6.89328C152.564 7.05178 147.002 7.06675 143.294 6.92655C139.587 6.78634 142.161 6.70432 148.958 6.68602C155.755 6.66772 158.742 6.73478 155.653 6.89328Z" stroke="#E8BA00" stroke-width="0.427178"/>
<path d="M42.8898 9.44963C40.6245 9.60591 37.123 9.61533 35.1659 9.47042C33.2088 9.3255 35.0621 9.17033 39.2845 9.15896C43.5069 9.14759 45.1551 9.29334 42.8898 9.44963Z" stroke="#E8BA00" stroke-width="0.427178"/>
<path d="M168.017 9.11278C166.061 9.26823 162.353 9.27821 159.778 9.13496C157.203 8.9917 158.851 8.83708 163.382 8.82488C167.913 8.81268 169.973 8.95732 168.017 9.11278Z" stroke="#E8BA00" stroke-width="0.427178"/>
</svg>
