<svg width="147" height="167" viewBox="0 0 147 167" fill="none" xmlns="http://www.w3.org/2000/svg">
<rect width="147" height="167" rx="12" fill="#F0F2F5"/>
<path d="M47.0039 96.6422L62.1922 81.5754C64.7791 79.0092 68.9732 79.0092 71.5601 81.5754L86.7484 96.6422M80.1243 90.0711L85.3765 84.8609C87.9633 82.2947 92.1575 82.2947 94.7443 84.8609L99.9965 90.0711M80.1243 70.3578H80.1574M53.628 109.784H93.3724C97.0308 109.784 99.9965 106.842 99.9965 103.213V63.7868C99.9965 60.1576 97.0308 57.2157 93.3724 57.2157H53.628C49.9696 57.2157 47.0039 60.1576 47.0039 63.7868V103.213C47.0039 106.842 49.9696 109.784 53.628 109.784Z" stroke="#A0A4B4" stroke-width="7.63093" stroke-linecap="round" stroke-linejoin="round"/>
</svg>
