<svg width="39" height="35" viewBox="0 0 39 35" fill="none" xmlns="http://www.w3.org/2000/svg">
<path fill-rule="evenodd" clip-rule="evenodd" d="M29.1568 2.75414C30.5059 2.87464 32.2333 3.21708 33.1832 3.52243C34.1111 3.82543 35.6088 4.43887 36.4979 4.89681C37.7479 5.52941 38.2002 5.89554 38.3536 6.34354C38.5637 6.88845 38.5076 6.99611 38.0255 7.3312C37.4945 7.70655 37.4724 7.70421 36.3745 7.11049C35.7849 6.77523 34.6602 6.2241 33.8893 5.91504C33.0151 5.52685 31.5132 5.16291 29.8646 4.91972C27.821 4.61188 26.889 4.55838 25.7541 4.73329C24.9379 4.85113 23.698 5.17395 23.0023 5.4182C22.3042 5.68492 21.2833 6.25821 19.7643 7.52844L20.741 7.79119C21.281 7.96213 22.126 8.41538 22.6421 8.81101C23.2394 9.28342 23.7884 10.0006 24.1685 10.8363C24.5982 11.8362 24.7152 12.4167 24.6317 13.2031C24.5673 13.8098 24.3316 14.5573 24.1145 14.9205C23.8973 15.2838 23.3591 15.7265 22.9355 15.9315C22.534 16.1388 21.806 16.266 21.3424 16.2168C20.9009 16.1699 20.2749 15.9671 19.9408 15.7499C19.6287 15.535 19.1048 15.0022 18.7527 14.5331C18.4204 14.0888 17.937 13.1741 17.6923 12.5346C17.4721 11.875 17.2441 11.0782 17.148 10.091L16.1295 10.6418C15.586 10.9249 14.5681 11.6803 13.9004 12.2911C13.2131 12.8771 12.2895 14.006 11.8086 14.7502C11.3475 15.5193 10.6673 16.8786 10.3267 17.774C9.98604 18.6695 9.50522 20.2544 9.26064 21.2964C9.03815 22.3407 8.74647 24.0366 8.63436 25.0927C8.50555 26.306 8.50738 26.9197 8.65416 26.7989C8.77885 26.6758 9.59444 25.5127 10.4512 24.1722C11.3055 22.8541 12.1921 21.653 12.4051 21.5393C12.7112 21.39 12.932 21.4135 13.1778 21.6213C13.3843 21.7796 13.5448 22.1602 13.558 22.457C13.5687 22.7762 12.8958 24.0681 11.8558 25.6619C10.9186 27.1302 9.72949 28.8672 9.21162 29.5393C8.69613 30.189 8.02133 30.8672 7.71286 31.0389C7.37993 31.2308 6.97538 31.256 6.58515 31.1464C6.17523 31.012 5.70024 30.439 5.00742 29.1839C4.46022 28.2396 3.28643 26.0473 2.39847 24.317C0.93585 21.4805 0.814706 21.1496 1.14464 20.7756C1.32542 20.5448 1.68043 20.3553 1.90597 20.3338C2.15359 20.3147 2.52951 20.5591 2.74135 20.8769C2.97527 21.1972 3.85546 22.7903 6.26272 27.4539L6.78699 23.9877C7.05598 22.0848 7.55167 19.7289 7.85532 18.7614C8.15897 17.7938 8.79434 16.2253 9.25252 15.2741C9.73279 14.3254 10.6432 12.8996 11.3079 12.1067C11.9725 11.3139 13.068 10.2486 13.7457 9.7525C14.4456 9.25874 15.562 8.62742 16.238 8.35836C17.1712 7.98026 17.5822 7.68307 17.8382 7.16491C18.0357 6.77687 18.6048 6.04202 19.1502 5.53186C19.6734 5.01936 20.6376 4.34917 21.2766 4.00801C21.9156 3.66685 22.893 3.29344 23.4664 3.14981C24.0398 3.00618 24.998 2.81252 25.6353 2.6984C26.2504 2.58193 27.8322 2.61352 29.1348 2.7518L29.1568 2.75414ZM19.5217 11.7063C19.675 12.1543 20.0868 12.9024 20.4413 13.349C20.7957 13.7956 21.2898 14.1889 21.535 14.1922C21.7999 14.2204 22.1233 14.1184 22.2946 13.9775C22.4634 13.8591 22.6191 13.4439 22.6597 13.0619C22.7002 12.68 22.5683 12.0297 22.3684 11.5995C22.1661 11.1918 21.6935 10.5962 21.3224 10.3069C20.9733 10.0199 20.3104 9.74502 19.8467 9.6958C19.074 9.61377 19.0496 9.6339 19.1421 10.2345C19.2143 10.6057 19.3683 11.2583 19.5217 11.7063Z" fill="#E8BA00"/>
</svg>
