<svg width="39" height="35" viewBox="0 0 39 35" fill="none" xmlns="http://www.w3.org/2000/svg">
<path fill-rule="evenodd" clip-rule="evenodd" d="M9.63613 2.75414C8.28704 2.87464 6.55965 3.21708 5.60973 3.52243C4.68188 3.82543 3.18419 4.43887 2.29512 4.89681C1.04505 5.52941 0.592744 5.89554 0.439371 6.34354C0.229309 6.88845 0.28539 6.99611 0.767483 7.3312C1.2985 7.70655 1.32058 7.70421 2.41849 7.11049C3.00803 6.77523 4.13279 6.2241 4.90372 5.91504C5.77787 5.52685 7.27972 5.16291 8.92835 4.91972C10.972 4.61188 11.904 4.55838 13.0389 4.73329C13.8551 4.85113 15.095 5.17395 15.7907 5.4182C16.4888 5.68492 17.5096 6.25821 19.0287 7.52844L18.0519 7.79119C17.5119 7.96213 16.667 8.41538 16.1509 8.81101C15.5536 9.28342 15.0046 10.0006 14.6244 10.8363C14.1948 11.8362 14.0778 12.4167 14.1613 13.2031C14.2257 13.8098 14.4613 14.5573 14.6785 14.9205C14.8957 15.2838 15.4338 15.7265 15.8575 15.9315C16.259 16.1388 16.9869 16.266 17.4506 16.2168C17.8921 16.1699 18.518 15.9671 18.8522 15.7499C19.1643 15.535 19.6882 15.0022 20.0402 14.5331C20.3726 14.0888 20.856 13.1741 21.1006 12.5346C21.3209 11.875 21.5488 11.0782 21.645 10.091L22.6635 10.6418C23.207 10.9249 24.2249 11.6803 24.8925 12.2911C25.5799 12.8771 26.5034 14.006 26.9843 14.7502C27.4455 15.5193 28.1256 16.8786 28.4663 17.774C28.8069 18.6695 29.2878 20.2544 29.5323 21.2964C29.7548 22.3407 30.0465 24.0366 30.1586 25.0927C30.2874 26.306 30.2856 26.9197 30.1388 26.7989C30.0141 26.6758 29.1985 25.5127 28.3418 24.1722C27.4874 22.8541 26.6008 21.653 26.3878 21.5393C26.0818 21.39 25.861 21.4135 25.6151 21.6213C25.4087 21.7796 25.2481 22.1602 25.235 22.457C25.2242 22.7762 25.8972 24.0681 26.9371 25.6619C27.8744 27.1302 29.0635 28.8672 29.5814 29.5393C30.0968 30.189 30.7716 30.8672 31.0801 31.0389C31.413 31.2308 31.8176 31.256 32.2078 31.1464C32.6177 31.012 33.0927 30.439 33.7855 29.1839C34.3328 28.2396 35.5065 26.0473 36.3945 24.317C37.8571 21.4805 37.9783 21.1496 37.6483 20.7756C37.4675 20.5448 37.1125 20.3553 36.887 20.3338C36.6394 20.3147 36.2635 20.5591 36.0516 20.8769C35.8177 21.1972 34.9375 22.7903 32.5302 27.4539L32.006 23.9877C31.737 22.0848 31.2413 19.7289 30.9376 18.7614C30.634 17.7938 29.9986 16.2253 29.5404 15.2741C29.0602 14.3254 28.1497 12.8996 27.4851 12.1067C26.8204 11.3139 25.725 10.2486 25.0472 9.7525C24.3474 9.25874 23.231 8.62742 22.555 8.35836C21.6218 7.98026 21.2107 7.68307 20.9548 7.16491C20.7573 6.77687 20.1881 6.04202 19.6428 5.53186C19.1195 5.01936 18.1554 4.34917 17.5163 4.00801C16.8773 3.66685 15.9 3.29344 15.3266 3.14981C14.7532 3.00618 13.795 2.81252 13.1577 2.6984C12.5425 2.58193 10.9608 2.61352 9.65821 2.7518L9.63613 2.75414ZM19.2713 11.7063C19.1179 12.1543 18.7062 12.9024 18.3517 13.349C17.9973 13.7956 17.5032 14.1889 17.258 14.1922C16.993 14.2204 16.6696 14.1184 16.4984 13.9775C16.3296 13.8591 16.1738 13.4439 16.1333 13.0619C16.0927 12.68 16.2247 12.0297 16.4246 11.5995C16.6269 11.1918 17.0995 10.5962 17.4706 10.3069C17.8197 10.0199 18.4826 9.74502 18.9462 9.6958C19.7189 9.61377 19.7434 9.6339 19.6509 10.2345C19.5786 10.6057 19.4247 11.2583 19.2713 11.7063Z" fill="#E8BA00"/>
</svg>
