<svg width="241" height="186" viewBox="0 0 241 186" fill="none" xmlns="http://www.w3.org/2000/svg">
<g filter="url(#filter0_i_474_2034)">
<path d="M59.6148 22.0372C59.2473 18.9401 54.7528 18.9401 54.3854 22.0372L51.1988 48.8941C51.0554 50.1025 50.1027 51.0552 48.8943 51.1986L22.0374 54.3852C18.9403 54.7527 18.9403 59.2472 22.0374 59.6146L48.8943 62.8012C50.1027 62.9446 51.0554 63.8973 51.1988 65.1057L54.3854 91.9626C54.7528 95.0597 59.2473 95.0597 59.6148 91.9626L62.8014 65.1057C62.9448 63.8973 63.8975 62.9446 65.1059 62.8012L91.9628 59.6146C95.0599 59.2472 95.0599 54.7527 91.9628 54.3852L65.1059 51.1986C63.8975 51.0552 62.9448 50.1025 62.8014 48.8941L59.6148 22.0372Z" fill="#FFED41"/>
</g>
<g filter="url(#filter1_i_474_2034)">
<path d="M172.78 70.6431C172.319 66.7582 166.681 66.7582 166.22 70.6431L162.223 104.332C162.043 105.848 160.848 107.043 159.332 107.223L125.643 111.22C121.758 111.681 121.758 117.319 125.643 117.78L159.332 121.777C160.848 121.957 162.043 123.152 162.223 124.668L166.22 158.357C166.681 162.242 172.319 162.242 172.78 158.357L176.777 124.668C176.957 123.152 178.152 121.957 179.668 121.777L213.357 117.78C217.242 117.319 217.242 111.681 213.357 111.22L179.668 107.223C178.152 107.043 176.957 105.848 176.777 104.332L172.78 70.6431Z" fill="#FFFEC1"/>
</g>
<defs>
<filter id="filter0_i_474_2034" x="19.7148" y="19.7144" width="76.1502" height="76.1511" filterUnits="userSpaceOnUse" color-interpolation-filters="sRGB">
<feFlood flood-opacity="0" result="BackgroundImageFix"/>
<feBlend mode="normal" in="SourceGraphic" in2="BackgroundImageFix" result="shape"/>
<feColorMatrix in="SourceAlpha" type="matrix" values="0 0 0 0 0 0 0 0 0 0 0 0 0 0 0 0 0 0 127 0" result="hardAlpha"/>
<feOffset dx="2.63307" dy="2.63307"/>
<feGaussianBlur stdDeviation="0.789922"/>
<feComposite in2="hardAlpha" operator="arithmetic" k2="-1" k3="1"/>
<feColorMatrix type="matrix" values="0 0 0 0 0 0 0 0 0 0 0 0 0 0 0 0 0 0 0.6 0"/>
<feBlend mode="normal" in2="shape" result="effect1_innerShadow_474_2034"/>
</filter>
<filter id="filter1_i_474_2034" x="122.73" y="67.7295" width="95.5208" height="95.5227" filterUnits="userSpaceOnUse" color-interpolation-filters="sRGB">
<feFlood flood-opacity="0" result="BackgroundImageFix"/>
<feBlend mode="normal" in="SourceGraphic" in2="BackgroundImageFix" result="shape"/>
<feColorMatrix in="SourceAlpha" type="matrix" values="0 0 0 0 0 0 0 0 0 0 0 0 0 0 0 0 0 0 127 0" result="hardAlpha"/>
<feOffset dx="3.30289" dy="3.30289"/>
<feGaussianBlur stdDeviation="0.990867"/>
<feComposite in2="hardAlpha" operator="arithmetic" k2="-1" k3="1"/>
<feColorMatrix type="matrix" values="0 0 0 0 0 0 0 0 0 0 0 0 0 0 0 0 0 0 0.6 0"/>
<feBlend mode="normal" in2="shape" result="effect1_innerShadow_474_2034"/>
</filter>
</defs>
</svg>
