<svg width="284" height="34" viewBox="0 0 284 34" fill="none" xmlns="http://www.w3.org/2000/svg">
<path d="M1.66053 29.5392C2.39438 29.7265 21.1866 29.9861 43.6093 29.9238C66.0384 30.0712 116.108 29.3654 154.956 28.3761C193.805 27.3869 238.453 25.5889 254.284 24.2605C269.963 22.7269 282.726 21.0734 282.554 20.239C282.244 19.6188 218.784 20.528 141.378 22.4975C63.8334 24.6811 0.558045 26.8442 0.58394 27.6831C0.616309 28.7317 1.07863 29.5572 1.66053 29.5392Z" fill="#E8BA00"/>
<path d="M0.521891 11.5206C0.851684 12.77 18.3476 13.4895 46.8802 13.2386C72.0669 13.0909 112.528 12.4718 136.968 11.7174C161.415 11.1727 203.874 9.23232 231.35 7.75445C262.601 5.95009 281.619 4.10348 281.871 2.83614C282.117 1.35907 234.527 2.19826 141.132 5.08112C47.7367 7.96398 0.185624 10.0615 0.521891 11.5206Z" fill="#E8BA00"/>
<path d="M1.66053 29.5392C2.39438 29.7265 21.1866 29.9861 43.6093 29.9238C66.0384 30.0712 116.108 29.3654 154.956 28.3761C193.805 27.3869 238.453 25.5889 254.284 24.2605C269.963 22.7269 282.726 21.0734 282.554 20.239C282.244 19.6188 218.784 20.528 141.378 22.4975C63.8334 24.6811 0.558045 26.8442 0.58394 27.6831C0.616309 28.7317 1.07863 29.5572 1.66053 29.5392Z" stroke="#E8BA00"/>
<path d="M0.521891 11.5206C0.851684 12.77 18.3476 13.4895 46.8802 13.2386C72.0669 13.0909 112.528 12.4718 136.968 11.7174C161.415 11.1727 203.874 9.23232 231.35 7.75445C262.601 5.95009 281.619 4.10348 281.871 2.83614C282.117 1.35907 234.527 2.19826 141.132 5.08112C47.7367 7.96398 0.185624 10.0615 0.521891 11.5206Z" stroke="#E8BA00"/>
<path d="M58.1812 30.3133C54.9678 29.9926 50.0217 30.1453 47.2706 30.6501C44.5195 31.1548 47.151 31.4935 53.1155 31.3094C59.08 31.1253 61.3946 30.634 58.1812 30.3133Z" fill="#E8BA00"/>
<path d="M278.577 23.5103C276.527 23.1537 272.599 23.2749 269.848 23.7797C267.097 24.2845 268.71 24.6545 273.511 24.5064C278.312 24.3582 280.626 23.8669 278.577 23.5103Z" fill="#E8BA00"/>
<path d="M87.8095 23.1009C85.0325 22.7668 79.7954 22.9285 76.1715 23.4602C72.5475 23.9919 74.8881 24.3395 81.289 24.1419C87.6899 23.9443 90.5865 23.4351 87.8095 23.1009Z" fill="#E8BA00"/>
<path d="M252.924 18.0043C249.711 17.6836 244.765 17.8363 242.013 18.3411C239.262 18.8459 241.894 19.1845 247.858 19.0004C253.823 18.8163 256.138 18.325 252.924 18.0043Z" fill="#E8BA00"/>
<path d="M13.5523 23.2938C10.7753 22.9597 6.55649 23.0899 4.09635 23.5857C1.63622 24.0815 3.97677 24.4291 9.21389 24.2674C14.451 24.1058 16.3292 23.6279 13.5523 23.2938Z" fill="#E8BA00"/>
<path d="M51.8443 13.7147C48.6309 13.3941 43.6847 13.5467 40.9336 14.0515C38.1826 14.5563 40.8141 14.8949 46.7786 14.7108C52.7431 14.5267 55.0577 14.0354 51.8443 13.7147Z" fill="#E8BA00"/>
<path d="M243.145 7.80982C240.368 7.47568 235.13 7.63734 231.507 8.16905C227.883 8.70077 230.223 9.04837 236.624 8.85079C243.025 8.65321 245.922 8.14395 243.145 7.80982Z" fill="#E8BA00"/>
<path d="M101.112 5.89618C94.6979 5.6743 83.6418 6.01557 76.3809 6.65955C69.1136 7.0938 74.3637 7.35159 88.0384 6.92949C101.568 6.51188 107.519 5.90832 101.112 5.89618Z" fill="#E8BA00"/>
<path d="M207.309 2.61816C200.895 2.39628 190.13 2.72857 183.305 3.35908C176.475 3.77986 181.725 4.03765 194.963 3.62902C208.201 3.22039 213.716 2.63031 207.309 2.61816Z" fill="#E8BA00"/>
<path d="M58.1812 30.3133C54.9678 29.9926 50.0217 30.1453 47.2706 30.6501C44.5195 31.1548 47.151 31.4935 53.1155 31.3094C59.08 31.1253 61.3946 30.634 58.1812 30.3133Z" stroke="#E8BA00"/>
<path d="M278.577 23.5103C276.527 23.1537 272.599 23.2749 269.848 23.7797C267.097 24.2845 268.71 24.6545 273.511 24.5064C278.312 24.3582 280.626 23.8669 278.577 23.5103Z" stroke="#E8BA00"/>
<path d="M87.8095 23.1009C85.0325 22.7668 79.7954 22.9285 76.1715 23.4602C72.5475 23.9919 74.8881 24.3395 81.289 24.1419C87.6899 23.9443 90.5865 23.4351 87.8095 23.1009Z" stroke="#E8BA00"/>
<path d="M252.924 18.0043C249.711 17.6836 244.765 17.8363 242.013 18.3411C239.262 18.8459 241.894 19.1845 247.858 19.0004C253.823 18.8163 256.138 18.325 252.924 18.0043Z" stroke="#E8BA00"/>
<path d="M13.5523 23.2938C10.7753 22.9597 6.55649 23.0899 4.09635 23.5857C1.63622 24.0815 3.97677 24.4291 9.21389 24.2674C14.451 24.1058 16.3292 23.6279 13.5523 23.2938Z" stroke="#E8BA00"/>
<path d="M51.8443 13.7147C48.6309 13.3941 43.6847 13.5467 40.9336 14.0515C38.1826 14.5563 40.8141 14.8949 46.7786 14.7108C52.7431 14.5267 55.0577 14.0354 51.8443 13.7147Z" stroke="#E8BA00"/>
<path d="M243.145 7.80982C240.368 7.47568 235.13 7.63734 231.507 8.16905C227.883 8.70077 230.223 9.04837 236.624 8.85079C243.025 8.65321 245.922 8.14395 243.145 7.80982Z" stroke="#E8BA00"/>
<path d="M101.112 5.89618C94.6979 5.6743 83.6418 6.01557 76.3809 6.65955C69.1136 7.0938 74.3637 7.35159 88.0384 6.92949C101.568 6.51188 107.519 5.90832 101.112 5.89618Z" stroke="#E8BA00"/>
<path d="M207.309 2.61816C200.895 2.39628 190.13 2.72857 183.305 3.35908C176.475 3.77986 181.725 4.03765 194.963 3.62902C208.201 3.22039 213.716 2.63031 207.309 2.61816Z" stroke="#E8BA00"/>
<path d="M78.5512 29.6849C75.3378 29.3643 70.3916 29.5169 67.6405 30.0217C64.8894 30.5265 67.5209 30.8651 73.4854 30.681C79.4499 30.4969 81.7646 30.0056 78.5512 29.6849Z" fill="#E8BA00"/>
<path d="M260.396 24.0719C257.182 23.7512 252.236 23.9039 249.485 24.4087C246.734 24.9135 249.365 25.2521 255.33 25.068C261.294 24.8839 263.609 24.3926 260.396 24.0719Z" fill="#E8BA00"/>
<path d="M10.5494 29.6847C9.22717 29.3057 6.60861 29.3865 4.73038 29.8643C2.85215 30.3421 4.0289 30.7257 7.22936 30.6269C10.4363 30.7378 11.8781 30.2735 10.5494 29.6847Z" fill="#E8BA00"/>
<path d="M65.9916 23.7748C63.2146 23.4407 57.9775 23.6023 54.3535 24.134C50.7296 24.6658 53.0701 25.0134 59.4711 24.8158C65.872 24.6182 68.7685 24.1089 65.9916 23.7748Z" fill="#E8BA00"/>
<path d="M273.294 17.3759C270.081 17.0553 265.135 17.208 262.383 17.7127C259.632 18.2175 262.264 18.5561 268.228 18.372C274.193 18.1879 276.508 17.6966 273.294 17.3759Z" fill="#E8BA00"/>
<path d="M83.1249 12.7496C77.8749 12.4918 69.7282 12.7433 64.9405 13.3109C60.1527 13.8785 64.378 13.958 74.4158 13.6482C84.4536 13.3384 88.375 13.0074 83.1249 12.7496Z" fill="#E8BA00"/>
<path d="M218.417 8.5735C214.04 8.28876 206.184 8.53124 200.96 9.11235C195.736 9.69346 199.379 9.79092 208.981 9.49456C218.582 9.19819 222.794 8.85824 218.417 8.5735Z" fill="#E8BA00"/>
<path d="M58.9273 7.19871C55.7139 6.87804 50.7677 7.03072 48.0166 7.53549C45.2655 8.04026 47.897 8.37889 53.8615 8.19478C59.826 8.01067 62.1407 7.51937 58.9273 7.19871Z" fill="#E8BA00"/>
<path d="M235.68 1.74283C232.903 1.40869 227.666 1.57035 224.042 2.10207C220.418 2.63378 222.759 2.98139 229.159 2.78381C235.56 2.58623 238.457 2.07697 235.68 1.74283Z" fill="#E8BA00"/>
<path d="M78.5512 29.6849C75.3378 29.3643 70.3916 29.5169 67.6405 30.0217C64.8894 30.5265 67.5209 30.8651 73.4854 30.681C79.4499 30.4969 81.7646 30.0056 78.5512 29.6849Z" stroke="#E8BA00"/>
<path d="M260.396 24.0719C257.182 23.7512 252.236 23.9039 249.485 24.4087C246.734 24.9135 249.365 25.2521 255.33 25.068C261.294 24.8839 263.609 24.3926 260.396 24.0719Z" stroke="#E8BA00"/>
<path d="M10.5494 29.6847C9.22717 29.3057 6.60861 29.3865 4.73038 29.8643C2.85215 30.3421 4.0289 30.7257 7.22936 30.6269C10.4363 30.7378 11.8781 30.2735 10.5494 29.6847Z" stroke="#E8BA00"/>
<path d="M65.9916 23.7748C63.2146 23.4407 57.9775 23.6023 54.3535 24.134C50.7296 24.6658 53.0701 25.0134 59.4711 24.8158C65.872 24.6182 68.7685 24.1089 65.9916 23.7748Z" stroke="#E8BA00"/>
<path d="M273.294 17.3759C270.081 17.0553 265.135 17.208 262.383 17.7127C259.632 18.2175 262.264 18.5561 268.228 18.372C274.193 18.1879 276.508 17.6966 273.294 17.3759Z" stroke="#E8BA00"/>
<path d="M83.1249 12.7496C77.8749 12.4918 69.7282 12.7433 64.9405 13.3109C60.1527 13.8785 64.378 13.958 74.4158 13.6482C84.4536 13.3384 88.375 13.0074 83.1249 12.7496Z" stroke="#E8BA00"/>
<path d="M218.417 8.5735C214.04 8.28876 206.184 8.53124 200.96 9.11235C195.736 9.69346 199.379 9.79092 208.981 9.49456C218.582 9.19819 222.794 8.85824 218.417 8.5735Z" stroke="#E8BA00"/>
<path d="M58.9273 7.19871C55.7139 6.87804 50.7677 7.03072 48.0166 7.53549C45.2655 8.04026 47.897 8.37889 53.8615 8.19478C59.826 8.01067 62.1407 7.51937 58.9273 7.19871Z" stroke="#E8BA00"/>
<path d="M235.68 1.74283C232.903 1.40869 227.666 1.57035 224.042 2.10207C220.418 2.63378 222.759 2.98139 229.159 2.78381C235.56 2.58623 238.457 2.07697 235.68 1.74283Z" stroke="#E8BA00"/>
</svg>
